<?xml version="1.0" standalone="no"?>
<!DOCTYPE svg PUBLIC "-//W3C//DTD SVG 20010904//EN"
 "http://www.w3.org/TR/2001/REC-SVG-20010904/DTD/svg10.dtd">
<svg version="1.0" xmlns="http://www.w3.org/2000/svg"
 width="260.000000pt" height="260.000000pt" viewBox="0 0 260.000000 260.000000"
 preserveAspectRatio="xMidYMid meet">
<metadata>
Created by potrace 1.11, written by Peter Selinger 2001-2013
</metadata>
<g transform="translate(0.000000,260.000000) scale(0.100000,-0.100000)"
fill="#000000" stroke="none">
<path d="M430 2574 c-88 -23 -178 -73 -246 -137 -75 -69 -123 -145 -156 -242
l-23 -70 0 -815 c0 -448 3 -831 7 -850 10 -61 47 -152 82 -206 38 -57 131
-151 158 -160 10 -3 18 -10 18 -15 0 -5 7 -9 16 -9 9 0 12 -5 8 -12 -4 -6 -3
-8 4 -4 6 3 22 1 36 -5 22 -10 24 -15 13 -28 -11 -14 -10 -14 5 -2 11 8 25 10
35 6 10 -4 27 -10 38 -13 11 -3 395 -7 853 -9 737 -3 840 -1 890 13 32 8 63
16 70 16 6 1 12 6 12 11 0 5 7 4 16 -3 12 -11 15 -11 12 0 -2 8 2 14 8 15 6 0
18 8 28 17 10 10 24 18 32 18 8 0 14 5 14 10 0 6 5 10 11 10 5 0 7 -5 3 -12
-4 -7 -3 -8 5 -4 6 4 9 11 6 15 -6 10 76 87 88 83 5 -1 6 2 3 7 -3 4 7 26 22
47 42 59 72 130 86 203 9 49 11 271 9 876 -2 446 -4 820 -6 833 -1 12 -6 22
-11 22 -4 0 -6 7 -2 15 3 8 2 15 -2 15 -5 0 -14 17 -21 38 -33 95 -158 228
-262 279 -129 64 -112 63 -999 62 -666 0 -814 -3 -860 -15z"/>
<path d="M2575 340 c3 -5 8 -10 11 -10 2 0 4 5 4 10 0 6 -5 10 -11 10 -5 0 -7
-4 -4 -10z"/>
<path d="M2470 176 c0 -2 8 -10 18 -17 15 -13 16 -12 3 4 -13 16 -21 21 -21
13z"/>
</g>
</svg>
