<svg width="67" height="67" viewBox="0 0 67 67" fill="none" xmlns="http://www.w3.org/2000/svg">
<path d="M52.4616 0H14.5423C6.5248 0 0 6.52402 0 14.5406V52.4555C0 60.472 6.5248 66.9961 14.5423 66.9961H25.9028C25.4353 63.9167 24.4925 60.1068 23.1844 59.1759C19.8494 57.4712 17.2567 55.582 15.4144 53.0053C13.7292 50.7351 12.6764 47.8874 12.264 43.9086C12.1225 42.6124 12.0479 41.2102 12.0479 39.6823V37.7263L14.4952 15.5697C14.4952 13.0441 16.5457 10.9938 19.0716 10.9938C19.0755 10.9938 19.0755 10.9938 19.0794 10.9938C19.0834 10.9938 19.0834 10.9938 19.0873 10.9938H19.2405C21.7663 10.9938 23.8169 13.0441 23.8169 15.5697L22.552 34.698C22.552 36.3673 23.9033 37.7224 25.5728 37.7263C27.2423 37.7224 28.5936 36.3673 28.5936 34.698L29.1789 15.5697C29.1789 13.0441 31.2295 10.9938 33.7553 10.9938H33.7671H33.8221H33.8339C36.3598 10.9938 38.4103 13.0441 38.4103 15.5697L38.9956 34.698C38.9956 36.3673 40.3469 37.7224 42.0164 37.7263C43.6859 37.7224 45.0372 36.3673 45.0372 34.698L43.7723 15.5697C43.7723 13.0441 45.8229 10.9938 48.3487 10.9938H48.5019C48.5059 10.9938 48.5059 10.9938 48.5098 10.9938C48.5137 10.9938 48.5137 10.9938 48.5176 10.9938C51.0435 10.9938 53.094 13.0441 53.094 15.5697L55.5413 37.7067C54.7596 37.4671 53.9347 37.3374 53.0744 37.3374C49.1147 37.3374 45.7914 40.0751 44.8958 43.7593C41.9025 44.596 39.4277 46.8112 38.4928 49.8906C37.2357 54.0266 39.1606 58.41 42.8924 60.637C42.2757 61.4383 41.8239 64.4548 41.5765 67H52.4577C60.4752 67 67 60.476 67 52.4594V14.5445C67 6.5201 60.4791 0 52.4616 0ZM60.5773 54.5607H54.956V60.1814H49.9947V54.5607H44.3734V49.6H49.9947V43.9793H54.956V49.6H60.5773V54.5607Z" fill="#4C5C60"/>
</svg>
