<svg width="67" height="68" viewBox="0 0 67 68" fill="none" xmlns="http://www.w3.org/2000/svg">
<path d="M29.6014 44.6979L25.3553 48.9441H37.21L41.4522 44.6979H29.6014Z" fill="#4C5C60"/>
<path d="M53.6055 48.9441V44.6979H46.9514L42.7053 48.9441H53.6055Z" fill="#4C5C60"/>
<path d="M19.86 48.9441L24.1022 44.6979H13.3906V48.9441H19.86Z" fill="#4C5C60"/>
<path d="M33.6827 10.4536C28.1128 10.4536 24.2319 16.047 24.2319 21.067L24.2122 32.6782H43.1295L43.1177 21.067C43.1177 16.047 39.2447 10.4536 33.6827 10.4536Z" fill="#4C5C60"/>
<path d="M37.7363 36.567L33.4902 40.8092H53.6055V36.567H37.7363Z" fill="#4C5C60"/>
<path d="M21.608 57.5346H28.6195L33.3213 52.8328H14.2587C15.5942 55.2839 18.3634 57.5346 21.608 57.5346Z" fill="#4C5C60"/>
<path d="M45.3881 57.5346C48.6327 57.5346 51.4019 55.2839 52.7374 52.8328H38.8205L34.1147 57.5346H45.3881Z" fill="#4C5C60"/>
<path d="M13.3906 36.567V40.8092H27.991L32.2371 36.567H13.3906Z" fill="#4C5C60"/>
<path d="M52.4546 0.5H14.5415C6.52442 0.5 0 7.02442 0 15.0415V52.9585C0 60.9756 6.52442 67.5 14.5415 67.5H25.9013H41.5779H52.4585C60.4756 67.5 67 60.9756 67 52.9585V15.0415C66.9961 7.02442 60.4756 0.5 52.4546 0.5ZM57.4942 49.7729C57.4942 55.1582 52.2071 61.4234 45.3881 61.4234H21.608C14.7889 61.4234 9.50185 55.1621 9.50185 49.7729V32.6782H20.3471V26.3227L20.3117 26.3266L20.3314 25.6982L20.351 21.067C20.351 14.0123 25.7088 6.45879 33.6866 6.45879C41.6565 6.45879 47.0104 14.0123 47.0104 21.067V32.6782H57.4982V49.7729H57.4942Z" fill="#4C5C60"/>
</svg>
