<svg width="73" height="84" viewBox="0 0 73 84" fill="none" xmlns="http://www.w3.org/2000/svg">
<path d="M56.6512 24.9189V21.8967C56.6512 10.9248 48.1774 0 36.7916 0C25.4058 0 16.9124 10.9248 16.9124 21.8967V24.8876C16.9046 24.8876 16.8928 24.8876 16.885 24.8876V29.125C16.8928 29.125 16.9046 29.125 16.9124 29.1211V40.9475H16.885H4.22712H0V66.7288C0 74.7176 7.84365 84 17.9574 84H55.0426C65.1563 84 73 74.7137 73 66.7288V40.9475H68.7729H56.663H56.6395V29.1642L56.6512 24.9189ZM52.4476 40.9514H52.4241H21.1395H21.1121V25.0836L21.1395 24.7308V21.8967C21.1395 13.2572 27.8285 4.39815 36.7955 4.39815C45.7586 4.39815 52.428 13.2572 52.428 21.8967V24.7308L52.4476 40.9514ZM4.22712 45.1849H16.9124H36.7524L28.2943 53.6559H4.2232V45.1849H4.22712ZM30.0478 57.8855H51.1286L42.6704 66.3564H21.5896L30.0478 57.8855ZM4.22712 57.8855H24.0711L15.6129 66.3564H4.22712V57.8855ZM17.9613 79.7743C12.1451 79.7743 6.98257 75.337 5.04514 70.5899H38.4472L29.2767 79.7743H17.9613ZM55.0465 79.7743H35.2495L44.42 70.5899H67.9627C66.0252 75.337 60.8627 79.7743 55.0465 79.7743ZM68.7807 66.3564H48.6471L57.1052 57.8855H68.7807V66.3564ZM68.7807 53.6559H34.271L42.7291 45.1849H56.6512H68.7807V53.6559Z" fill="#4C5C60"/>
</svg>
