<svg width="75" height="66" viewBox="0 0 75 66" fill="none" xmlns="http://www.w3.org/2000/svg">
<path d="M65.6786 18.9805H43.6882V22.8969H65.6786V18.9805Z" fill="#4C5C60"/>
<path d="M65.6786 27.6357H43.6882V31.552H65.6786V27.6357Z" fill="#4C5C60"/>
<path d="M59.1422 36.2869H43.6882V40.2033H59.1422V36.2869Z" fill="#4C5C60"/>
<path d="M73.6993 10.8384C73.5701 10.6387 70.4409 5.88031 64.21 2.94696C58.6409 0.326911 49.4884 -1.27881 37.2028 5.62573C24.9171 -1.27881 15.7607 0.322994 10.1955 2.94696C3.9646 5.88031 0.835432 10.6387 0.706192 10.8384L0.392883 11.3241V65.6479L3.3419 63.9169C3.52597 63.8072 21.5765 53.4249 35.2485 62.8516L37.2028 64.3007L39.157 62.8516C52.7938 53.4524 70.8795 63.8111 71.0636 63.9169L74.0126 65.6479V11.3241L73.6993 10.8384ZM35.2446 58.2421C23.4602 51.7291 10.129 56.3779 4.31316 59.041V12.5303C5.15126 11.4259 7.66165 8.46902 11.8678 6.49126C18.6862 3.27984 26.5503 4.1297 35.2446 9.01732V58.2421ZM70.1002 59.041C66.4619 57.3726 59.8785 54.9288 52.5706 54.9288C48.2038 54.9288 43.5747 55.8022 39.1649 58.2381V9.0134C58.1122 -1.61952 68.1968 9.98466 70.0963 12.5225V59.041H70.1002Z" fill="#4C5C60"/>
<path d="M30.7212 18.9805H8.7308V22.8969H30.7212V18.9805Z" fill="#4C5C60"/>
<path d="M30.7212 27.6357H8.7308V31.552H30.7212V27.6357Z" fill="#4C5C60"/>
<path d="M30.7173 36.2869H8.83264V40.2033H30.7173V36.2869Z" fill="#4C5C60"/>
</svg>
