<svg width="68" height="72" viewBox="0 0 68 72" fill="none" xmlns="http://www.w3.org/2000/svg">
<path d="M11.4814 46.918H20.3598C21.8401 46.918 23.0503 45.7078 23.0503 44.2274V35.349C23.0503 33.8686 21.8401 32.6585 20.3598 32.6585H11.4814C10.001 32.6585 8.79083 33.8686 8.79083 35.349V44.2274C8.79083 45.7078 10.001 46.918 11.4814 46.918ZM11.9239 35.7994H19.9133V43.7888H11.9239V35.7994Z" fill="#4C5C60"/>
<path d="M57.1148 7.60946H55.0039V3.23879C55.0039 1.7584 53.7937 0.548248 52.3134 0.548248H45.7456C44.2652 0.548248 43.0551 1.7584 43.0551 3.23879V7.60946H24.8127V3.23879C24.8127 1.7584 23.6025 0.548248 22.1221 0.548248H15.5544C14.074 0.548248 12.8639 1.7584 12.8639 3.23879V7.60946H10.3065C4.78832 7.60946 0.31192 9.73603 0.31192 15.2542V21.3089H67.1094V15.2542C67.1094 9.73603 62.6369 7.60946 57.1148 7.60946ZM63.193 17.3925H4.22828V15.2542C4.22828 13.6367 4.83532 13.0101 5.4306 12.6067C6.46452 11.9096 8.19555 11.5258 10.3065 11.5258H12.8639H16.7802V7.60946V4.46853H20.8924V7.60946V11.5258H24.8088H43.0551H46.9714V7.60946V4.46853H51.0836V7.60946V11.5258H55H57.1109C59.2218 11.5258 60.9529 11.9096 61.9868 12.6067C62.5821 13.0101 63.1891 13.6367 63.1891 15.2542V17.3925H63.193Z" fill="#4C5C60"/>
<path d="M0.31192 61.6709C0.31192 67.189 4.78832 71.6654 10.3065 71.6654H26.1364H41.7666H57.1187C62.6369 71.6654 67.1133 67.189 67.1133 61.6709V25.2252H0.31192V61.6709ZM4.22828 29.1416H63.193V61.6709C63.193 65.0233 60.4672 67.7491 57.1148 67.7491H41.7627H26.1364H10.3065C6.95407 67.7491 4.22828 65.0233 4.22828 61.6709V29.1416Z" fill="#4C5C60"/>
<path d="M29.4183 46.918H38.2967C39.7771 46.918 40.9873 45.7078 40.9873 44.2274V35.349C40.9873 33.8686 39.7771 32.6585 38.2967 32.6585H29.4183C27.9379 32.6585 26.7278 33.8686 26.7278 35.349V44.2274C26.7278 45.7078 27.9379 46.918 29.4183 46.918ZM29.8609 35.7994H37.8502V43.7888H29.8609V35.7994Z" fill="#4C5C60"/>
<path d="M47.3552 46.918H56.2336C57.714 46.918 58.9242 45.7078 58.9242 44.2274V35.349C58.9242 33.8686 57.714 32.6585 56.2336 32.6585H47.3552C45.8749 32.6585 44.6647 33.8686 44.6647 35.349V44.2274C44.6647 45.7078 45.8749 46.918 47.3552 46.918ZM47.7978 35.7994H55.7872V43.7888H47.7978V35.7994Z" fill="#4C5C60"/>
<path d="M11.4814 63.9972H20.3598C21.8401 63.9972 23.0503 62.7871 23.0503 61.3067V52.4283C23.0503 50.9479 21.8401 49.7378 20.3598 49.7378H11.4814C10.001 49.7378 8.79083 50.9479 8.79083 52.4283V61.3067C8.79083 62.7871 10.001 63.9972 11.4814 63.9972ZM11.9239 52.8787H19.9133V60.8641H11.9239V52.8787Z" fill="#4C5C60"/>
<path d="M29.4183 63.9972H38.2967C39.7771 63.9972 40.9873 62.7871 40.9873 61.3067V52.4283C40.9873 50.9479 39.7771 49.7378 38.2967 49.7378H29.4183C27.9379 49.7378 26.7278 50.9479 26.7278 52.4283V61.3067C26.7278 62.7871 27.9379 63.9972 29.4183 63.9972ZM29.8609 52.8787H37.8502V60.8641H29.8609V52.8787Z" fill="#4C5C60"/>
<path d="M47.3552 63.9972H56.2336C57.714 63.9972 58.9242 62.7871 58.9242 61.3067V52.4283C58.9242 50.9479 57.714 49.7378 56.2336 49.7378H47.3552C45.8749 49.7378 44.6647 50.9479 44.6647 52.4283V61.3067C44.6647 62.7871 45.8749 63.9972 47.3552 63.9972ZM47.7978 52.8787H55.7872V60.8641H47.7978V52.8787Z" fill="#4C5C60"/>
</svg>
