<svg width="20" height="20" viewBox="0 0 20 20" fill="none" xmlns="http://www.w3.org/2000/svg">
<path d="M14.7841 19.1941H4.80914C2.26742 19.1941 0.199585 17.1262 0.199585 14.5845V4.60956C0.199585 2.06785 2.26742 0 4.80914 0H14.7841C17.3258 0 19.3937 2.06785 19.3937 4.60956V14.5845C19.3897 17.1262 17.3258 19.1941 14.7841 19.1941ZM4.80914 1.96602C3.35226 1.96602 2.1656 3.15268 2.1656 4.60956V14.5845C2.1656 16.0414 3.35226 17.2281 4.80914 17.2281H14.7841C16.241 17.2281 17.4277 16.0414 17.4277 14.5845V4.60956C17.4277 3.15268 16.241 1.96602 14.7841 1.96602H4.80914Z" fill="#4C5C60"/>
</svg>
