<svg width="19" height="20" viewBox="0 0 19 20" fill="none" xmlns="http://www.w3.org/2000/svg">
<path d="M14.4371 0.326019H4.56295C2.04693 0.326019 0 2.37296 0 4.88897V14.7631C0 17.2791 2.04693 19.326 4.56295 19.326H14.4371C16.9531 19.326 19 17.2791 19 14.7631V4.88897C18.9961 2.37296 16.9531 0.326019 14.4371 0.326019ZM14.4371 17.3799H4.56295C3.12079 17.3799 1.94613 16.2052 1.94613 14.7631V4.88897C1.94613 3.44682 3.12079 2.27216 4.56295 2.27216H14.4371C15.5264 2.27216 16.4607 2.93898 16.8523 3.8849L9.07162 12.3401L5.07856 7.70738L3.31851 9.22704L9.01734 15.8369L17.0539 7.10259V14.7631C17.0539 16.2052 15.8792 17.3799 14.4371 17.3799Z" fill="#4C5C60"/>
</svg>
