<svg width="53" height="85" viewBox="0 0 53 85" fill="none" xmlns="http://www.w3.org/2000/svg">
<path d="M40.0018 0.175201H13.1042C6.02735 0.175201 0.266388 5.93225 0.266388 13.013V31.1145H52.8396V13.013C52.8396 5.93225 47.0826 0.175201 40.0018 0.175201ZM48.9232 27.1981H4.18275V13.013C4.18275 8.09408 8.18527 4.09156 13.1042 4.09156H40.0018C44.9207 4.09156 48.9232 8.09408 48.9232 13.013V27.1981Z" fill="#4C5C60"/>
<path d="M0.266388 71.8015C0.266388 78.8784 6.02344 84.6394 13.1042 84.6394H40.0018C47.0786 84.6394 52.8396 78.8823 52.8396 71.8015V35.8141H0.266388V71.8015ZM4.18275 39.7304H48.9232V71.8015C48.9232 76.7205 44.9207 80.723 40.0018 80.723H13.1042C8.18527 80.723 4.18275 76.7205 4.18275 71.8015V39.7304Z" fill="#4C5C60"/>
<path d="M10.8406 9.18283C9.75965 9.18283 8.88239 10.0601 8.88239 11.141V22.1068C8.88239 23.1877 9.75965 24.065 10.8406 24.065C11.9215 24.065 12.7987 23.1877 12.7987 22.1068V11.141C12.7987 10.0601 11.9215 9.18283 10.8406 9.18283Z" fill="#4C5C60"/>
<path d="M10.8406 67.5366C11.9215 67.5366 12.7987 66.6593 12.7987 65.5784V46.3883C12.7987 45.3073 11.9215 44.4301 10.8406 44.4301C9.75965 44.4301 8.88239 45.3073 8.88239 46.3883V65.5784C8.88239 66.6593 9.75965 67.5366 10.8406 67.5366Z" fill="#4C5C60"/>
</svg>
