<svg width="53" height="86" viewBox="0 0 53 86" fill="none" xmlns="http://www.w3.org/2000/svg">
<path d="M52.741 29.7646V17.2323V13.6214C52.741 6.54454 46.984 0.783569 39.9032 0.783569H13.0056C5.92876 0.783569 0.167786 6.54062 0.167786 13.6214V17.2323V29.7646H52.741ZM8.78378 11.7494C8.78378 10.6685 9.66105 9.7912 10.742 9.7912C11.8229 9.7912 12.7001 10.6685 12.7001 11.7494V22.7152C12.7001 23.7961 11.8229 24.6734 10.742 24.6734C9.66105 24.6734 8.78378 23.7961 8.78378 22.7152V11.7494Z" fill="#4C5C60"/>
<path d="M0.167786 34.4643V68.799V72.4099C0.167786 79.4868 5.92485 85.2477 13.0056 85.2477H39.9032C46.9801 85.2477 52.741 79.4907 52.741 72.4099V68.799V34.4643H0.167786ZM12.7001 61.8788C12.7001 62.9597 11.8229 63.837 10.742 63.837C9.66105 63.837 8.78378 62.9597 8.78378 61.8788V42.6886C8.78378 41.6077 9.66105 40.7304 10.742 40.7304C11.8229 40.7304 12.7001 41.6077 12.7001 42.6886V61.8788Z" fill="#4C5C60"/>
</svg>
