<svg width="79" height="79" viewBox="0 0 79 79" fill="none" xmlns="http://www.w3.org/2000/svg">
<path d="M61.8569 0H17.147C7.6902 0 0 7.68982 0 17.1422V61.85C0 71.3024 7.6902 78.9961 17.147 78.9961H30.5424C29.9925 75.3618 28.8772 70.8695 27.3369 69.7738C23.406 67.7616 20.3447 65.535 18.1726 62.5012C16.1837 59.8223 14.9436 56.4687 14.4562 51.7737C14.2885 50.2451 14.2027 48.5917 14.2027 46.7901V44.4855L17.0885 18.355C17.0885 15.3757 19.5063 12.958 22.4856 12.958C22.4895 12.958 22.4895 12.958 22.4934 12.958C22.4973 12.958 22.4973 12.958 22.5012 12.958H22.6806C25.66 12.958 28.0778 15.3757 28.0778 18.355L26.5842 40.9136C26.5842 42.8828 28.1792 44.4777 30.1485 44.4855C32.1179 44.4816 33.7129 42.8828 33.7129 40.9136L34.4031 18.355C34.4031 15.3757 36.8209 12.958 39.8003 12.958H39.8159H39.8783H39.8939C42.8732 12.958 45.291 15.3757 45.291 18.355L45.9813 40.9136C45.9813 42.8828 47.5763 44.4777 49.5456 44.4855C51.515 44.4816 53.1099 42.8828 53.1099 40.9136L51.6163 18.355C51.6163 15.3757 54.0342 12.958 57.0135 12.958H57.1929C57.1968 12.958 57.1968 12.958 57.2007 12.958C57.2046 12.958 57.2046 12.958 57.2085 12.958C60.1879 12.958 62.6057 15.3757 62.6057 18.355L65.4915 44.4582C64.5711 44.1774 63.5962 44.0254 62.5823 44.0254C57.9104 44.0254 53.9952 47.2503 52.9383 51.5982C49.4091 52.5848 46.4921 55.1935 45.3885 58.8279C43.9067 63.7062 46.1724 68.873 50.5751 71.4974C49.8459 72.441 49.3155 76.0013 49.023 79H61.853C71.3059 79 79 71.3102 79 61.8539V17.1422C79.0039 7.68982 71.3098 0 61.8569 0ZM60.6012 63.6789C60.4842 63.8153 60.3634 63.9557 60.2425 64.0883C59.5327 65.7768 58.0547 67.0597 56.2453 67.5004C55.8007 67.6096 55.3367 67.668 54.857 67.668C51.6358 67.668 49.023 65.0554 49.023 61.8344C49.023 59.2841 50.6609 57.116 52.9422 56.3244C53.5428 56.1177 54.1862 56.0007 54.857 56.0007C58.0781 56.0007 60.6909 58.6134 60.6909 61.8344C60.6909 62.4622 60.5895 63.0666 60.4063 63.636C60.4725 63.6516 60.5349 63.6672 60.6012 63.6789ZM61.2798 55.3144C59.1038 55.3144 57.3411 53.5518 57.3411 51.3759C57.3411 51.3252 57.345 51.2745 57.3489 51.2239C57.4308 49.122 59.1545 47.4374 61.2798 47.4374C63.4558 47.4374 65.2185 49.2 65.2185 51.3759C65.2185 52.4483 64.7895 53.4232 64.0915 54.1329C63.3739 54.8621 62.3795 55.3144 61.2798 55.3144ZM67.375 58.9254C67.3555 60.103 66.3962 61.0506 65.2146 61.0506C64.302 61.0506 63.526 60.4852 63.2062 59.6858C63.1087 59.4401 63.0541 59.171 63.0541 58.8864C63.0541 58.0402 63.5416 57.311 64.2475 56.9561C64.5399 56.8079 64.8675 56.726 65.2185 56.726C65.7527 56.726 66.2363 56.921 66.6146 57.2408C67.0825 57.6385 67.3789 58.2274 67.3789 58.8903C67.3789 58.902 67.375 58.9137 67.375 58.9254Z" fill="#4C5C60"/>
</svg>
