<svg width="66" height="60" viewBox="0 0 66 60" fill="none" xmlns="http://www.w3.org/2000/svg">
<path d="M4.73433 55.6205V0.791473H0.817978V59.5369H65.8296V55.6205H4.73433Z" fill="#4C5C60"/>
<path d="M22.7496 16.3316C22.7496 14.2403 21.0538 12.5406 18.9585 12.5406H15.9625C13.8712 12.5406 12.1715 14.2363 12.1715 16.3316V48.9627H22.7457V16.3316H22.7496Z" fill="#4C5C60"/>
<path d="M40.569 8.89049C40.569 6.79915 38.8733 5.09946 36.778 5.09946H33.782C31.6907 5.09946 29.991 6.79524 29.991 8.89049V48.9627H40.5651V8.89049H40.569Z" fill="#4C5C60"/>
<path d="M58.3885 22.5978C58.3885 20.5064 56.6927 18.8067 54.5974 18.8067H51.6014C49.5101 18.8067 47.8104 20.5025 47.8104 22.5978V48.9627H58.3846V22.5978H58.3885Z" fill="#4C5C60"/>
</svg>
